# xmcd
#
# Track frame offsets:
#	150
#	14000
#	29900
#	45200
#	57675
#	71850
#	85875
#	99675
#	111525
#	131725
#
# Disc length: 1921 seconds
#
# Revision: 1
# Processed by: cddbd v1.5.1PL0 Copyright (c) Steve Scherf et al.
# Submitted via: EasyCDDAExtractor 8.1.4.1
#
DISCID=9a077f0a
DTITLE=Various Artist - L'amitie
DYEAR=2003
DGENRE=Country
TTITLE0=Murielle Leclerc - L'amitie
TTITLE1=Murielle Leclerc - L'homme De Ma Vie
TTITLE2=Murielle Leclerc - L'hymne Aux Madelinots
TTITLE3=Murielle Leclerc - Mon Spectacke
TTITLE4=Murielle Leclerc - Vas-Y Donc
TTITLE5=Murielle Leclerc - Attention Á Vos 40 Ans
TTITLE6=Murielle Leclerc - Une Larme Dans Ma Biere
TTITLE7=Murielle Leclerc - File Ta Vie
TTITLE8=Murielle Leclerc - Coeur Blessé
TTITLE9=Murielle leclerc - De La Neige Sur La Bible De Mon Pere
EXTD=
EXTT0=
EXTT1=
EXTT2=
EXTT3=
EXTT4=
EXTT5=
EXTT6=
EXTT7=
EXTT8=
EXTT9=
PLAYORDER=
